<svg version="1.2" xmlns="http://www.w3.org/2000/svg" viewBox="0 0 119 41" width="119" height="41">
	<title>Bumper</title>
	<style>
		.s0 { fill: #f76300 } 
		.s1 { fill: #d44f00 } 
	</style>
	<g id="Bumper">
		<path id="Base" class="s0" d="m71 1.03c-4.68 0.49-12.1 1.61-16.5 2.49-4.4 0.89-12.05 2.97-17 4.62-4.95 1.66-13.05 5.06-18 7.55-4.95 2.5-10.91 5.84-13.25 7.42-2.34 1.59-4.45 3.9-4.69 5.14-0.24 1.24-0.69 4.61-1 7.5-0.5 4.66-0.36 5.2 1.19 4.79 0.96-0.25 8.95-2.03 17.75-3.94 8.8-1.92 21.85-4.64 29-6.06 7.15-1.42 19.97-3.66 28.5-4.98 8.52-1.33 21.38-3.23 28.57-4.24l13.07-1.82c-1.72-11.71-2.72-14.9-3.64-15.46-0.83-0.51-4.88-1.39-9-1.97-4.13-0.58-11.78-1.25-17-1.49-5.23-0.24-13.33-0.04-18 0.45z"/>
		<path id="Base 2" class="s1" d="m65 10.68c-1.38 0.23-6.1 1.12-10.5 1.98-4.4 0.87-11.38 2.69-15.5 4.05-4.13 1.35-12.9 5.11-19.5 8.35-6.6 3.23-13.22 6.91-14.71 8.16-1.49 1.25-3.04 3.63-3.45 5.28-0.46 1.85-0.38 2.74 0.21 2.32 0.52-0.38 10.62-2.76 22.45-5.29 11.82-2.53 31.85-6.34 44.5-8.47 12.65-2.12 28.76-4.69 35.81-5.71l12.81-1.85c-1-3.88-1.65-5.45-2.09-6-0.44-0.55-4.23-1.56-8.42-2.25-4.18-0.69-14.7-1.19-23.36-1.11-8.66 0.07-16.88 0.32-18.25 0.54z"/>
	</g>
</svg>