<svg version="1.2" xmlns="http://www.w3.org/2000/svg" viewBox="0 0 903 713" width="903" height="713">
	<title>Ps5 GPV style</title>
	<style>
		.s0 { fill: #f76300 } 
		.s1 { fill: #ffffff } 
	</style>
	<g id="Disconnected">
		<path id="Base" fill-rule="evenodd" class="s0" d="m167 1.43c-2.47 0.69-6.75 2.39-9.5 3.78-2.75 1.38-7.7 4.98-11 7.99-3.3 3.01-7.45 7.69-9.21 10.39-1.77 2.7-4.62 8.74-6.33 13.41-1.71 4.67-4.62 13.9-6.48 20.5-1.85 6.6-5.19 19.88-7.41 29.5-2.23 9.63-4.05 17.95-4.06 18.5-0.01 0.65 7.53 0.4 21.24-0.68 11.69-0.92 28.22-1.69 36.75-1.7 8.53 0 24.95 0.57 36.5 1.28 11.55 0.71 21.14 1.25 21.3 1.2 0.17-0.06-0.65-12.02-1.82-26.6-1.16-14.58-2.77-29.65-3.56-33.5-0.79-3.85-3.23-10.6-5.42-15-2.2-4.4-5.73-10.02-7.84-12.5-2.12-2.48-7.41-6.95-11.76-9.95-4.34-3-9.93-6.04-12.4-6.76-2.47-0.72-6.75-1.27-9.5-1.21-2.75 0.05-7.03 0.66-9.5 1.35zm549.5-0.08c-2.2 0.66-7.79 3.89-12.41 7.18-5.37 3.81-10.04 8.14-12.89 11.97-2.45 3.3-5.68 8.7-7.17 12-1.5 3.3-3.23 8.25-3.86 11-0.63 2.75-1.58 8.83-2.11 13.5-0.53 4.67-1.68 17.5-2.55 28.5-0.88 11-1.47 20.04-1.31 20.1 0.17 0.05 9.75-0.49 21.3-1.2 11.55-0.71 27.98-1.28 36.5-1.28 8.52 0.01 25.06 0.78 36.75 1.7 11.69 0.92 21.25 1.34 21.25 0.93 0-0.41-1.17-5.81-2.61-12-1.43-6.19-4.17-17.55-6.07-25.25-1.9-7.7-5.21-19.4-7.35-26-2.32-7.17-5.45-14.42-7.77-18-2.14-3.3-6.32-8.29-9.3-11.09-2.97-2.8-7.88-6.36-10.9-7.9-3.02-1.55-7.75-3.41-10.5-4.15-2.75-0.73-7.25-1.31-10-1.28-2.75 0.03-6.8 0.6-9 1.27zm-540.5 116.33c-1.37 0.23-6.1 1.12-10.5 1.98-4.4 0.87-11.37 2.69-15.5 4.05-4.12 1.35-12.9 5.11-19.5 8.35-6.6 3.23-13.26 6.91-14.8 8.16-2.31 1.88-2.97 3.49-3.82 9.28l-1.03 7-15.35 5c-13.27 26.35-19.97 40.75-23.45 49-3.48 8.25-9 21.97-12.27 30.5-3.27 8.52-9.48 26.07-13.8 39-4.32 12.93-10.14 31.94-12.92 42.25-2.78 10.31-7.05 27.19-9.49 37.5-2.44 10.31-5.79 25.73-7.46 34.25-1.67 8.52-4.4 23.82-6.08 34-1.67 10.18-3.93 25.48-5.01 34-1.08 8.52-2.51 21.57-3.18 29-0.67 7.42-1.23 29.02-1.26 48-0.02 21.19 0.46 39.32 1.24 47 0.71 6.88 2.13 18.13 3.16 25 1.03 6.88 3.08 17.23 4.54 23 1.46 5.77 3.89 13.88 5.38 18 1.5 4.13 4.95 11.31 7.66 15.97 3.4 5.84 8.06 11.64 14.94 18.62 7.28 7.38 11.77 11.04 16.5 13.44 5.46 2.77 8.09 3.42 16.5 4.08 5.5 0.43 16.53 1.94 24.5 3.36 7.97 1.41 17.54 3.24 21.25 4.05 3.71 0.81 7.49 1.14 8.39 0.73 0.91-0.41 3.09-2.77 4.86-5.25 1.76-2.48 4.82-7.42 6.79-11 1.97-3.58 5.92-11.67 8.77-18 2.85-6.33 8.77-20.27 13.15-31 4.38-10.73 14.16-35.25 21.74-54.5 7.57-19.25 15.24-38.38 17.04-42.5 1.8-4.13 4.9-9.97 6.89-12.99 1.99-3.02 6.55-8.58 10.12-12.36 3.57-3.78 11.11-9.97 16.75-13.76 5.65-3.8 12.61-7.58 15.5-8.43 2.89-0.85 9.52-1.81 14.75-2.13 7.29-0.46 12.52-0.09 22.5 1.58l13 2.17c304.62-0.65 316.9-0.81 328.5-2.5 10.52-1.54 14.01-1.65 22-0.75 5.23 0.6 10.85 1.67 12.5 2.38 1.65 0.72 7.5 4.26 13 7.88 5.95 3.91 12.84 9.58 17.02 13.99 3.86 4.08 8.67 10.12 10.68 13.42 2.02 3.3 11.76 26.48 21.64 51.5 9.89 25.02 20.09 50.67 22.68 57 2.59 6.33 7.42 17.58 10.74 25 3.31 7.42 8.55 18.16 11.63 23.86 3.09 5.7 6.74 11.7 8.11 13.34 1.52 1.81 3.48 2.99 5 3.01 1.38 0.02 12.74-1.82 25.25-4.09 12.51-2.26 25.56-4.11 29-4.1 5.02 0.02 7.53-0.61 12.75-3.16 5-2.44 9.3-5.97 18.63-15.27 11.56-11.51 12.4-12.64 17.7-23.59 3.06-6.33 6.73-15.55 8.14-20.5 1.42-4.95 3.71-15.08 5.09-22.5 1.38-7.42 3.17-20.92 3.98-30 0.81-9.08 1.75-25.95 2.1-37.5 0.37-12.26 0.14-29.74-0.54-42-0.65-11.55-2.08-29.1-3.19-39-1.11-9.9-3.82-28.8-6.03-42-2.21-13.2-5.83-32.77-8.04-43.5-2.22-10.73-6.26-28.5-8.99-39.5-2.72-11-7.16-27.65-9.86-37-2.69-9.35-7.13-23.52-9.85-31.5-2.73-7.98-7.73-21.93-11.12-31-3.38-9.07-9.79-25.05-14.23-35.5-4.44-10.45-11.38-25.64-15.43-33.75-4.05-8.11-8.15-15.14-9.11-15.61-0.96-0.47-4.67-1.63-8.25-2.58l-6.5-1.73c-0.42-8.01-1.09-11.62-1.77-13.2-0.73-1.71-3.45-4.21-6.73-6.18-3.02-1.83-8.87-4.89-13-6.82-4.12-1.92-12.23-5.06-18-6.98-5.77-1.92-14.77-4.2-20-5.07-5.7-0.96-15.4-1.59-24.25-1.59-8.11 0.01-18.01 0.49-22 1.07-3.99 0.59-7.8 1.38-8.48 1.75-0.68 0.38-1.91 4.06-2.73 8.19-0.83 4.12-1.63 7.58-1.77 7.67-0.15 0.1-2.07 0.34-4.27 0.55-2.2 0.2-4.45 0.65-5 0.99-0.55 0.34-2.35 0.48-4 0.32-1.65-0.16-7.5-1.28-13-2.48-5.5-1.2-16.75-3.03-25-4.07-8.25-1.04-19.73-2.36-25.5-2.94-5.77-0.58-19.73-1.78-31-2.66-15.27-1.2-39.52-1.74-95-2.1-47.78-0.31-83.29-0.07-99 0.65-13.48 0.62-33.39 1.79-44.25 2.6-10.86 0.81-24.59 2.19-30.5 3.07-5.91 0.88-14.8 1.96-19.75 2.4-4.95 0.44-14.4 1.74-21 2.89-6.6 1.15-14.02 1.92-16.5 1.7-2.48-0.21-5.62-0.43-7-0.48-2.27-0.08-2.57-0.61-3.28-5.85-0.42-3.17-1.33-6.89-2.02-8.26-1.02-2.05-2.41-2.7-7.72-3.64-3.56-0.63-14.13-1.13-23.48-1.12-9.35 0.02-18.12 0.22-19.5 0.44z"/>
		<g id="Text">
			<path class="s1" d="m219.4 287.7q1.95-0.29 3.91-0.5 1.95-0.22 3.92-0.35 1.96-0.14 3.93-0.2 1.97-0.07 3.94-0.05c10.1 0 17 2.1 22 6.2 5.2 4.2 8.4 10.6 8.4 19.8 0 9.6-3.3 16.8-8.4 21.4-5.4 4.9-13.9 7.4-24.4 7.4q-1.67 0.02-3.33-0.02-1.67-0.04-3.33-0.12-1.66-0.09-3.32-0.23-1.66-0.14-3.32-0.33zm9.9 45.7q0.67 0.07 1.35 0.11 0.67 0.05 1.35 0.07 0.67 0.03 1.35 0.03 0.67 0.01 1.35-0.01c12.8 0.1 20.4-7 20.4-20.6 0.1-11.9-6.8-18.7-19.1-18.7q-0.84-0.03-1.69-0.01-0.84 0.02-1.68 0.09-0.84 0.08-1.67 0.21-0.84 0.13-1.66 0.31z"/>
			<path class="s1" d="m284.4 291.1q0.02 1.1-0.41 2.11-0.43 1.01-1.22 1.77-0.8 0.76-1.84 1.13-1.03 0.37-2.13 0.29-1.08 0.06-2.09-0.32-1.01-0.38-1.78-1.14-0.77-0.76-1.17-1.76-0.4-1-0.36-2.08-0.02-1.09 0.39-2.11 0.41-1.01 1.19-1.78 0.78-0.77 1.8-1.16 1.03-0.39 2.12-0.35 1.09-0.03 2.11 0.36 1.01 0.4 1.79 1.17 0.78 0.76 1.2 1.77 0.41 1.01 0.4 2.1zm-10.5 49.8v-39h9.9v39z"/>
			<path class="s1" d="m293.9 331.9q1.14 0.65 2.35 1.16 1.21 0.5 2.48 0.86 1.26 0.35 2.56 0.55 1.3 0.19 2.61 0.23c4.3 0 6.2-1.8 6.2-4.3 0-2.5-1.6-4-6.4-5.7-7.6-2.6-10.8-6.8-10.7-11.4 0-6.9 5.7-12.2 14.7-12.2q1.33-0.02 2.66 0.12 1.32 0.13 2.63 0.42 1.3 0.29 2.55 0.74 1.26 0.44 2.46 1.02l-1.9 7q-0.94-0.53-1.93-0.93-0.99-0.41-2.03-0.69-1.04-0.28-2.1-0.42-1.07-0.15-2.14-0.16c-3.5 0-5.4 1.7-5.4 4.1 0 2.4 1.8 3.7 6.8 5.4 7 2.6 10.3 6.2 10.4 11.9 0 7-5.5 12.2-15.8 12.2q-1.53 0.03-3.05-0.12-1.53-0.16-3.02-0.5-1.49-0.34-2.93-0.86-1.44-0.52-2.8-1.22z"/>
			<path class="s1" d="m356.4 339.7q-1.31 0.52-2.66 0.91-1.35 0.39-2.74 0.65-1.38 0.25-2.79 0.36-1.4 0.11-2.81 0.08c-12.2 0-20.1-7.8-20.1-19.8 0-11.7 8-20.8 21.7-20.8q1.22-0.01 2.43 0.1 1.21 0.11 2.41 0.34 1.19 0.22 2.36 0.57 1.17 0.34 2.3 0.79l-1.8 7.4q-0.87-0.39-1.78-0.67-0.91-0.29-1.84-0.48-0.93-0.19-1.88-0.28-0.95-0.09-1.9-0.07c-7.5 0-12 5.5-11.9 12.6 0 8 5.2 12.6 11.9 12.6q1 0.01 2-0.08 0.99-0.09 1.98-0.28 0.98-0.19 1.94-0.47 0.95-0.29 1.88-0.67z"/>
			<path class="s1" d="m400 321.1c0 14.3-10.1 20.7-20 20.7-11 0-19.5-7.6-19.5-20.1 0-12.8 8.4-20.6 20.2-20.6 11.5 0 19.3 8.2 19.3 20zm-29.4 0.4c0 7.5 3.7 13.2 9.7 13.2 5.6 0 9.5-5.5 9.5-13.4 0-6.1-2.7-13-9.4-13-7 0-9.8 6.7-9.8 13.2z"/>
			<path class="s1" d="m408.1 313.6c0-4.5-0.1-8.2-0.3-11.6h8.6l0.5 5.8h0.2q0.97-1.58 2.32-2.85 1.35-1.28 2.98-2.16 1.64-0.88 3.44-1.31 1.81-0.43 3.66-0.38c6.8 0 13.8 4.4 13.8 16.7v23.1h-9.8v-22c0-5.6-2.1-9.8-7.4-9.8q-1.29 0.04-2.52 0.47-1.22 0.43-2.25 1.21-1.03 0.78-1.79 1.83-0.74 1.06-1.14 2.29-0.11 0.39-0.19 0.79-0.08 0.39-0.13 0.79-0.05 0.41-0.07 0.81-0.02 0.41-0.01 0.81v22.9h-9.9z"/>
			<path class="s1" d="m453.8 313.6c0-4.5-0.1-8.2-0.3-11.6h8.6l0.5 5.8h0.2q0.97-1.58 2.32-2.85 1.35-1.28 2.98-2.16 1.64-0.88 3.44-1.31 1.81-0.43 3.66-0.38c6.8 0 13.8 4.4 13.8 16.7v23.1h-9.8v-22c0-5.6-2.1-9.8-7.4-9.8q-1.29 0.04-2.52 0.47-1.22 0.43-2.25 1.21-1.03 0.78-1.79 1.83-0.74 1.06-1.14 2.29-0.11 0.39-0.19 0.79-0.08 0.39-0.13 0.79-0.05 0.41-0.07 0.81-0.02 0.41-0.01 0.81v22.9h-9.9z"/>
			<path class="s1" d="m506.5 324.2c0.2 7 5.8 10.1 12 10.1q1.38 0.05 2.75-0.04 1.38-0.09 2.74-0.32 1.36-0.23 2.69-0.59 1.33-0.36 2.62-0.85l1.4 6.8q-1.62 0.62-3.3 1.09-1.67 0.47-3.38 0.77-1.72 0.3-3.45 0.44-1.73 0.13-3.47 0.1c-12.6 0-20.1-7.8-20.1-19.7 0-10.8 6.6-21 19-21 12.6 0 16.8 10.4 16.8 19q-0.01 0.53-0.03 1.05-0.02 0.53-0.06 1.05-0.03 0.53-0.09 1.05-0.05 0.53-0.12 1.05zm17.2-6.9c0.1-3.6-1.5-9.5-8.1-9.5-6.1 0-8.6 5.5-9 9.5z"/>
			<path class="s1" d="m569.5 339.7q-1.31 0.52-2.66 0.91-1.35 0.39-2.74 0.65-1.38 0.25-2.79 0.36-1.4 0.11-2.81 0.08c-12.2 0-20.1-7.8-20.1-19.8 0-11.7 8-20.8 21.7-20.8q1.22-0.01 2.43 0.1 1.21 0.11 2.41 0.34 1.19 0.22 2.36 0.57 1.17 0.34 2.3 0.79l-1.8 7.4q-0.87-0.39-1.78-0.67-0.91-0.29-1.84-0.48-0.93-0.19-1.88-0.28-0.95-0.09-1.9-0.07c-7.5 0-12 5.5-11.9 12.6 0 8 5.2 12.6 11.9 12.6q1 0.01 2-0.08 0.99-0.09 1.98-0.28 0.98-0.19 1.94-0.47 0.95-0.29 1.88-0.67z"/>
			<path class="s1" d="m589.3 290.9v11.1h9.4v7.4h-9.4v17.2c0 4.7 1.3 7.2 5 7.2q0.48 0.02 0.96-0.01 0.48-0.02 0.96-0.08 0.48-0.06 0.95-0.17 0.47-0.1 0.93-0.24l0.2 7.5q-0.86 0.28-1.73 0.49-0.88 0.2-1.78 0.33-0.89 0.12-1.79 0.17-0.9 0.04-1.8 0.01-1.17 0.05-2.33-0.13-1.15-0.19-2.25-0.6-1.09-0.41-2.08-1.04-0.99-0.62-1.84-1.43c-2.1-2.2-3-5.8-3-10.9v-18.3h-5.6v-7.4h5.6v-8.8z"/>
			<path class="s1" d="m612.5 324.2c0.2 7 5.8 10.1 12 10.1q1.38 0.05 2.75-0.04 1.38-0.09 2.74-0.32 1.36-0.23 2.69-0.59 1.33-0.36 2.62-0.85l1.4 6.8q-1.62 0.62-3.3 1.09-1.67 0.47-3.38 0.77-1.72 0.3-3.45 0.44-1.73 0.13-3.47 0.1c-12.6 0-20.1-7.8-20.1-19.7 0-10.8 6.6-21 19-21 12.6 0 16.8 10.4 16.8 19q-0.01 0.53-0.03 1.05-0.02 0.53-0.06 1.05-0.03 0.53-0.09 1.05-0.05 0.53-0.12 1.05zm17.2-6.9c0.1-3.6-1.5-9.5-8.1-9.5-6.1 0-8.6 5.5-9 9.5z"/>
			<path class="s1" d="m682.8 284.1v45.9c0 4 0.2 8.3 0.3 11h-8.8l-0.4-6.2h-0.2c-2.3 4.3-7 7-12.7 7-9.3 0-16.6-7.9-16.6-19.9-0.1-13 8.1-20.8 17.4-20.8 5.4 0 9.2 2.2 11 5.1h0.2v-22.1zm-9.9 34.1q-0.01-0.33-0.02-0.65-0.02-0.33-0.04-0.65-0.03-0.33-0.06-0.65-0.04-0.33-0.08-0.65-0.3-1.47-1.07-2.76-0.78-1.29-1.94-2.25-1.16-0.96-2.57-1.47-1.42-0.51-2.92-0.52c-6.3 0-9.8 5.6-9.8 12.9 0 7.1 3.5 12.3 9.8 12.3q1.5-0.01 2.92-0.52 1.41-0.51 2.58-1.47 1.16-0.95 1.93-2.24 0.77-1.3 1.07-2.77 0.08-0.36 0.14-0.72 0.05-0.36 0.09-0.72 0.04-0.36 0.06-0.73 0.01-0.36 0.01-0.73z"/>
		</g>
	</g>
</svg>