<svg version="1.2" xmlns="http://www.w3.org/2000/svg" viewBox="0 0 266 142" width="266" height="142">
	<title>Dpad</title>
	<style>
		.s0 { fill: #f76300 } 
		.s1 { fill: #e05500 } 
		.s2 { fill: #ff8a1f } 
		.s3 { fill: #f76300 } 
		.s4 { fill: #f76300 } 
		.s5 { fill: #d44f00 } 
	</style>
	<g id="Dpad">
		<g id="Press">
			<g id="Left">
				<path id="Base" class="s0" d="m125.21 113c0.49 2.47 2.01 6.86 3.39 9.75 1.71 3.6 3.53 5.76 5.75 6.88 2.76 1.38 5.31 1.52 16.75 0.92 7.43-0.38 15.08-1.1 17-1.58 2.52-0.64 6.34-3.77 13.66-11.18 6.53-6.61 10.41-11.36 10.86-13.29 0.38-1.65 0.38-4.13 0-5.5-0.38-1.38-5.27-7.13-10.86-12.79-7.32-7.41-11.14-10.54-13.66-11.18-1.92-0.48-9.57-1.2-17-1.58-11.44-0.6-13.99-0.46-16.75 0.92-2.23 1.12-4.03 3.27-5.73 6.88-1.37 2.89-2.95 7.72-3.52 10.75-0.56 3.02-0.97 7.97-0.9 11 0.07 3.02 0.52 7.52 1.01 10z"/>
				<path id="Outline" fill-rule="evenodd" class="s1" d="m193 101.31c-0.01 1.2-0.91 3.65-2 5.44-1.1 1.79-5.26 6.67-9.25 10.85-3.99 4.17-8.6 8.45-10.25 9.5-2.25 1.42-6.38 2.19-16.5 3.04-7.42 0.63-15.07 0.86-17 0.52-1.92-0.34-4.73-1.86-6.22-3.39-1.5-1.52-3.72-5.47-4.93-8.77-1.69-4.62-2.21-8.3-2.26-16-0.05-7.82 0.42-11.42 2.15-16.5 1.33-3.92 3.44-7.69 8.42-12.5l14.17 0.25c7.79 0.14 15.86 0.7 17.92 1.25 2.29 0.61 6.14 3.23 9.91 6.75 3.39 3.16 8.34 8.36 11 11.56 2.66 3.19 4.84 6.79 4.84 8zm-13.75-11.48c-5.63-5.7-11.02-10.27-12.75-10.79-1.65-0.5-8.4-1.2-15-1.56-7.78-0.42-12.88-0.26-14.5 0.43-1.39 0.6-3.5 3.09-4.75 5.59-1.24 2.47-2.79 7.54-3.45 11.25-0.94 5.26-0.94 8.35 0 14 0.66 3.99 2.1 9.05 3.2 11.25 1.1 2.2 3.24 4.76 4.75 5.69 2.37 1.45 4.35 1.58 14.25 0.94 6.33-0.41 13.08-1.15 15-1.65 2.48-0.64 6.33-3.75 13.21-10.69 6.75-6.79 9.73-10.52 9.75-12.18 0.03-1.71-2.75-5.22-9.71-12.28z"/>
				<path id="Base 2" class="s2" d="m188.12 93.31c-2.68-3.2-6.3-7.16-8.06-8.81l-3.18-3c-2.96 3.87-4.52 7.02-5.36 9.5-0.85 2.47-1.54 7.42-1.54 11 0 3.57 0.69 8.52 1.54 11 0.84 2.47 2.43 5.62 3.52 7l1.99 2.5c9.28-9.69 12.87-13.96 13.97-15.75 1.09-1.79 1.99-4.24 2-5.44 0-1.21-2.19-4.81-4.88-8z"/>
				<path class="s1" d="m142.6 92.6l-9.5 8.9q-0.18 0.16-0.28 0.39-0.09 0.22-0.1 0.46 0.01 0.24 0.1 0.46 0.1 0.23 0.28 0.39l9.5 8.9q0.24 0.23 0.57 0.3 0.33 0.06 0.64-0.07 0.31-0.13 0.5-0.41 0.19-0.28 0.19-0.62v-17.8q0.01-0.34-0.17-0.63-0.18-0.29-0.49-0.44-0.31-0.14-0.64-0.1-0.34 0.05-0.6 0.27z"/>
			</g>
			<g id="Right">
				<path id="Base" class="s0" d="m264.89 91c-0.48-2.48-2.01-6.86-3.39-9.75-1.71-3.6-3.52-5.76-5.75-6.88-2.75-1.38-5.31-1.52-16.75-0.92-7.42 0.38-15.07 1.1-17 1.58-2.52 0.64-6.34 3.77-13.66 11.18-6.53 6.61-10.41 11.36-10.86 13.29-0.38 1.65-0.38 4.12 0 5.5 0.38 1.37 5.27 7.13 10.86 12.79 7.32 7.41 11.14 10.54 13.66 11.18 1.93 0.48 9.58 1.2 17 1.58 11.44 0.6 14 0.46 16.75-0.92 2.23-1.12 4.03-3.27 5.74-6.88 1.36-2.89 2.94-7.73 3.51-10.75 0.56-3.03 0.97-7.98 0.9-11-0.07-3.03-0.52-7.53-1.01-10z"/>
				<path id="Outline" fill-rule="evenodd" class="s1" d="m265.59 103.5c-0.25 5.52-1.21 11.32-2.48 15-1.19 3.43-3.4 7.29-5.18 9-2.35 2.27-4.23 3.09-7.76 3.36-2.57 0.19-10.07-0.15-16.67-0.76-9.99-0.93-12.59-1.52-15.5-3.55-1.92-1.34-6.69-5.72-10.58-9.74-3.9-4.02-7.87-8.44-8.82-9.81-1.31-1.88-1.57-3.49-1.05-6.5 0.58-3.35 2.35-5.66 10.82-14.16 7.7-7.72 11.09-10.41 14.13-11.25 2.2-0.6 10.37-1.2 18.16-1.34 13.87-0.25 14.2-0.2 16.84 2.25 1.48 1.37 3.32 3.74 4.1 5.25 0.77 1.51 2.07 5.11 2.9 8 1.01 3.56 1.36 8.14 1.09 14.25zm-5.21-13.5c-0.82-3.03-2.37-6.96-3.44-8.75-1.34-2.24-2.95-3.44-5.19-3.86-1.79-0.34-8.2-0.31-14.25 0.07-6.05 0.37-12.35 1.08-14 1.57-1.79 0.53-6.94 4.95-12.75 10.93-5.74 5.91-9.75 10.86-9.75 12.04 0 1.18 4.01 6.13 9.75 12.04 5.81 5.98 10.96 10.4 12.75 10.93 1.65 0.49 7.95 1.2 14 1.57 6.05 0.38 12.46 0.41 14.25 0.07 2.63-0.49 3.7-1.52 5.63-5.36 1.3-2.61 2.88-7.11 3.5-10 0.61-2.89 1.09-7.61 1.05-10.5-0.03-2.89-0.73-7.73-1.55-10.75z"/>
				<path id="Base 2" class="s2" d="m218.4 90.5c-0.8-2.2-2.35-5.13-3.45-6.5l-1.99-2.5c-13.32 13.8-15.09 16.32-15.54 19.25-0.46 3.01-0.07 4.44 1.97 7.25 1.39 1.92 5.05 5.97 8.12 9l5.58 5.5c2.99-3.88 4.55-7.03 5.39-9.5 0.87-2.53 1.5-7.57 1.45-11.5-0.05-3.85-0.74-8.8-1.53-11z"/>
				<path class="s1" d="m246.5 112.1l9.5-8.9q0.18-0.16 0.28-0.39 0.09-0.22 0.1-0.46-0.01-0.24-0.1-0.46-0.1-0.23-0.28-0.39l-9.5-8.9q-0.24-0.23-0.57-0.3-0.33-0.06-0.64 0.07-0.31 0.13-0.5 0.41-0.19 0.28-0.19 0.62v17.8q-0.01 0.34 0.17 0.63 0.18 0.29 0.49 0.44 0.31 0.14 0.64 0.1 0.34-0.05 0.6-0.27z"/>
			</g>
			<g id="Down">
				<path id="Base" class="s0" d="m40 140.79c2.47-0.49 6.86-2.01 9.75-3.39 3.6-1.71 5.76-3.53 6.88-5.75 1.38-2.76 1.52-5.31 0.92-16.75-0.38-7.43-1.1-15.08-1.58-17-0.64-2.52-3.77-6.34-11.18-13.66-6.61-6.53-11.36-10.41-13.29-10.86-1.65-0.38-4.13-0.38-5.5 0-1.38 0.38-7.13 5.27-12.79 10.86-7.41 7.32-10.54 11.14-11.18 13.66-0.48 1.92-1.2 9.57-1.58 17-0.6 11.44-0.46 13.99 0.92 16.75 1.12 2.23 3.27 4.03 6.88 5.73 2.89 1.37 7.72 2.95 10.75 3.52 3.02 0.56 7.97 0.97 11 0.9 3.02-0.07 7.52-0.52 10-1.01z"/>
				<path id="Outline" fill-rule="evenodd" class="s1" d="m28.31 73c1.2 0.01 3.65 0.91 5.44 2 1.79 1.1 6.67 5.26 10.85 9.25 4.17 3.99 8.45 8.6 9.5 10.25 1.42 2.25 2.19 6.38 3.04 16.5 0.63 7.42 0.86 15.07 0.52 17-0.34 1.92-1.86 4.73-3.39 6.22-1.52 1.5-5.47 3.72-8.77 4.93-4.62 1.69-8.3 2.21-16 2.26-7.82 0.05-11.42-0.42-16.5-2.15-3.92-1.33-7.69-3.44-12.5-8.42l0.25-14.17c0.14-7.79 0.7-15.86 1.25-17.92 0.61-2.29 3.23-6.14 6.75-9.91 3.16-3.39 8.36-8.34 11.56-11 3.19-2.66 6.79-4.84 8-4.84zm-11.48 13.75c-5.7 5.63-10.27 11.02-10.79 12.75-0.5 1.65-1.2 8.4-1.56 15-0.42 7.78-0.26 12.88 0.43 14.5 0.6 1.39 3.09 3.5 5.59 4.75 2.47 1.24 7.54 2.79 11.25 3.45 5.26 0.94 8.35 0.94 14 0 3.99-0.66 9.05-2.1 11.25-3.2 2.2-1.1 4.76-3.24 5.69-4.75 1.45-2.37 1.58-4.35 0.94-14.25-0.41-6.33-1.15-13.08-1.65-15-0.64-2.48-3.75-6.33-10.69-13.21-6.79-6.75-10.52-9.73-12.18-9.75-1.71-0.03-5.22 2.75-12.28 9.71z"/>
				<path id="Base 2" class="s2" d="m20.31 77.88c-3.2 2.68-7.16 6.3-8.81 8.06l-3 3.18c3.87 2.96 7.02 4.52 9.5 5.36 2.47 0.85 7.42 1.54 11 1.54 3.57 0 8.52-0.69 11-1.54 2.47-0.84 5.62-2.43 7-3.52l2.5-1.99c-9.69-9.28-13.96-12.87-15.75-13.97-1.79-1.09-4.24-1.99-5.44-2-1.21 0-4.81 2.19-8 4.88z"/>
				<path class="s1" d="m37.9 120.8h-17.8q-0.34 0-0.62 0.19-0.28 0.19-0.41 0.5-0.13 0.31-0.07 0.64 0.07 0.33 0.3 0.57l8.9 9.5q0.16 0.18 0.39 0.28 0.22 0.09 0.46 0.1 0.24-0.01 0.46-0.1 0.23-0.1 0.39-0.28l8.9-9.5q0.21-0.26 0.25-0.59 0.03-0.34-0.11-0.64-0.14-0.3-0.42-0.48-0.29-0.18-0.62-0.19z"/>
			</g>
			<g id="Up">
				<path id="Base" class="s0" d="m80 74.11c-2.48 0.48-6.86 2.01-9.75 3.39-3.6 1.71-5.76 3.52-6.88 5.75-1.38 2.75-1.52 5.31-0.92 16.75 0.38 7.42 1.1 15.07 1.58 17 0.64 2.52 3.77 6.34 11.18 13.66 6.61 6.53 11.36 10.41 13.29 10.86 1.65 0.38 4.12 0.38 5.5 0 1.37-0.38 7.13-5.27 12.79-10.86 7.41-7.32 10.54-11.14 11.18-13.66 0.48-1.93 1.2-9.58 1.58-17 0.6-11.44 0.46-14-0.92-16.75-1.12-2.23-3.27-4.03-6.88-5.74-2.89-1.36-7.73-2.94-10.75-3.51-3.03-0.56-7.98-0.97-11-0.9-3.03 0.07-7.53 0.52-10 1.01z"/>
				<path id="Outline" fill-rule="evenodd" class="s1" d="m92.5 73.41c5.52 0.25 11.32 1.21 15 2.48 3.43 1.19 7.29 3.4 9 5.18 2.27 2.35 3.09 4.23 3.36 7.76 0.19 2.57-0.15 10.07-0.76 16.67-0.93 9.99-1.52 12.59-3.55 15.5-1.34 1.92-5.72 6.69-9.74 10.58-4.02 3.9-8.44 7.87-9.81 8.82-1.88 1.31-3.49 1.57-6.5 1.05-3.35-0.58-5.66-2.35-14.16-10.82-7.72-7.7-10.41-11.09-11.25-14.13-0.6-2.2-1.2-10.37-1.34-18.16-0.25-13.87-0.2-14.2 2.25-16.84 1.37-1.48 3.74-3.32 5.25-4.1 1.51-0.77 5.11-2.07 8-2.9 3.56-1.01 8.14-1.36 14.25-1.09zm-13.5 5.21c-3.03 0.82-6.96 2.37-8.75 3.44-2.24 1.34-3.44 2.95-3.86 5.19-0.34 1.79-0.31 8.2 0.07 14.25 0.37 6.05 1.08 12.35 1.57 14 0.53 1.79 4.95 6.94 10.93 12.75 5.91 5.74 10.86 9.75 12.04 9.75 1.18 0 6.13-4.01 12.04-9.75 5.98-5.81 10.4-10.96 10.93-12.75 0.49-1.65 1.2-7.95 1.57-14 0.38-6.05 0.41-12.46 0.07-14.25-0.49-2.63-1.52-3.7-5.36-5.63-2.61-1.3-7.11-2.88-10-3.5-2.89-0.61-7.61-1.09-10.5-1.05-2.89 0.03-7.73 0.73-10.75 1.55z"/>
				<path id="Base 2" class="s2" d="m79.5 120.6c-2.2 0.8-5.13 2.35-6.5 3.45l-2.5 1.99c13.8 13.32 16.32 15.09 19.25 15.54 3.01 0.46 4.44 0.07 7.25-1.97 1.92-1.39 5.97-5.05 9-8.12l5.5-5.58c-3.88-2.99-7.03-4.55-9.5-5.39-2.53-0.87-7.57-1.5-11.5-1.45-3.85 0.05-8.8 0.74-11 1.53z"/>
				<path class="s1" d="m82.1 93.8h17.8q0.34 0 0.62-0.19 0.28-0.19 0.41-0.5 0.13-0.31 0.07-0.64-0.07-0.33-0.3-0.57l-8.9-9.5q-0.16-0.18-0.39-0.28-0.22-0.09-0.46-0.1-0.24 0.01-0.46 0.1-0.23 0.1-0.39 0.28l-8.9 9.5q-0.21 0.26-0.25 0.59-0.03 0.34 0.11 0.64 0.14 0.3 0.42 0.48 0.29 0.18 0.62 0.19z"/>
			</g>
		</g>
		<g id="Base">
			<g id="Left">
				<path id="Base" class="s3" d="m125.21 40c0.49 2.47 2.01 6.86 3.39 9.75 1.71 3.6 3.53 5.76 5.75 6.88 2.76 1.38 5.31 1.52 16.75 0.92 7.43-0.38 15.08-1.1 17-1.58 2.52-0.64 6.34-3.77 13.66-11.18 6.53-6.61 10.41-11.36 10.86-13.29 0.38-1.65 0.38-4.13 0-5.5-0.38-1.38-5.27-7.13-10.86-12.79-7.32-7.41-11.14-10.54-13.66-11.18-1.92-0.48-9.57-1.2-17-1.58-11.44-0.6-13.99-0.46-16.75 0.92-2.23 1.12-4.03 3.27-5.73 6.88-1.37 2.89-2.95 7.72-3.52 10.75-0.56 3.02-0.97 7.97-0.9 11 0.07 3.02 0.52 7.52 1.01 10z"/>
				<path id="Outline" fill-rule="evenodd" class="s4" d="m193 28.31c-0.01 1.2-0.91 3.65-2 5.44-1.1 1.79-5.26 6.67-9.25 10.85-3.99 4.17-8.6 8.45-10.25 9.5-2.25 1.42-6.38 2.19-16.5 3.04-7.42 0.63-15.07 0.86-17 0.52-1.92-0.34-4.73-1.86-6.22-3.39-1.5-1.52-3.72-5.47-4.93-8.77-1.69-4.62-2.21-8.3-2.26-16-0.05-7.82 0.42-11.42 2.15-16.5 1.33-3.92 3.44-7.69 8.42-12.5l14.17 0.25c7.79 0.14 15.86 0.7 17.92 1.25 2.29 0.61 6.14 3.23 9.91 6.75 3.39 3.16 8.34 8.36 11 11.56 2.66 3.19 4.84 6.79 4.84 8zm-13.75-11.48c-5.63-5.7-11.02-10.27-12.75-10.79-1.65-0.5-8.4-1.2-15-1.56-7.78-0.42-12.88-0.26-14.5 0.43-1.39 0.6-3.5 3.09-4.75 5.59-1.24 2.47-2.79 7.54-3.45 11.25-0.94 5.26-0.94 8.35 0 14 0.66 3.99 2.1 9.05 3.2 11.25 1.1 2.2 3.24 4.76 4.75 5.69 2.37 1.45 4.35 1.58 14.25 0.94 6.33-0.41 13.08-1.15 15-1.65 2.48-0.64 6.33-3.75 13.21-10.69 6.75-6.79 9.73-10.52 9.75-12.18 0.03-1.71-2.75-5.22-9.71-12.28z"/>
				<path id="Base 2" class="s5" d="m188.12 20.31c-2.68-3.2-6.3-7.16-8.06-8.81l-3.18-3c-2.96 3.87-4.52 7.02-5.36 9.5-0.85 2.47-1.54 7.42-1.54 11 0 3.57 0.69 8.52 1.54 11 0.84 2.47 2.43 5.62 3.52 7l1.99 2.5c9.28-9.69 12.87-13.96 13.97-15.75 1.09-1.79 1.99-4.24 2-5.44 0-1.21-2.19-4.81-4.88-8z"/>
				<path class="s4" d="m142.6 19.6l-9.5 8.9q-0.18 0.16-0.28 0.39-0.09 0.22-0.1 0.46 0.01 0.24 0.1 0.46 0.1 0.23 0.28 0.39l9.5 8.9q0.24 0.23 0.57 0.3 0.33 0.06 0.64-0.07 0.31-0.13 0.5-0.41 0.19-0.28 0.19-0.62v-17.8q0.01-0.34-0.17-0.63-0.18-0.29-0.49-0.44-0.31-0.14-0.64-0.1-0.34 0.05-0.6 0.27z"/>
			</g>
			<g id="Right">
				<path id="Base" class="s3" d="m264.89 18c-0.48-2.48-2.01-6.86-3.39-9.75-1.71-3.6-3.52-5.76-5.75-6.88-2.75-1.38-5.31-1.52-16.75-0.92-7.42 0.38-15.07 1.1-17 1.58-2.52 0.64-6.34 3.77-13.66 11.18-6.53 6.61-10.41 11.36-10.86 13.29-0.38 1.65-0.38 4.12 0 5.5 0.38 1.37 5.27 7.13 10.86 12.79 7.32 7.41 11.14 10.54 13.66 11.18 1.93 0.48 9.58 1.2 17 1.58 11.44 0.6 14 0.46 16.75-0.92 2.23-1.12 4.03-3.27 5.74-6.88 1.36-2.89 2.94-7.73 3.51-10.75 0.56-3.03 0.97-7.98 0.9-11-0.07-3.03-0.52-7.53-1.01-10z"/>
				<path id="Outline" fill-rule="evenodd" class="s4" d="m265.59 30.5c-0.25 5.52-1.21 11.32-2.48 15-1.19 3.43-3.4 7.29-5.18 9-2.35 2.27-4.23 3.09-7.76 3.36-2.57 0.19-10.07-0.15-16.67-0.76-9.99-0.93-12.59-1.52-15.5-3.55-1.92-1.34-6.69-5.72-10.58-9.74-3.9-4.02-7.87-8.44-8.82-9.81-1.31-1.88-1.57-3.49-1.05-6.5 0.58-3.35 2.35-5.66 10.82-14.16 7.7-7.72 11.09-10.41 14.13-11.25 2.2-0.6 10.37-1.2 18.16-1.34 13.87-0.25 14.2-0.2 16.84 2.25 1.48 1.37 3.32 3.74 4.1 5.25 0.77 1.51 2.07 5.11 2.9 8 1.01 3.56 1.36 8.14 1.09 14.25zm-5.21-13.5c-0.82-3.03-2.37-6.96-3.44-8.75-1.34-2.24-2.95-3.44-5.19-3.86-1.79-0.34-8.2-0.31-14.25 0.07-6.05 0.37-12.35 1.08-14 1.57-1.79 0.53-6.94 4.95-12.75 10.93-5.74 5.91-9.75 10.86-9.75 12.04 0 1.18 4.01 6.13 9.75 12.04 5.81 5.98 10.96 10.4 12.75 10.93 1.65 0.49 7.95 1.2 14 1.57 6.05 0.38 12.46 0.41 14.25 0.07 2.63-0.49 3.7-1.52 5.63-5.36 1.3-2.61 2.88-7.11 3.5-10 0.61-2.89 1.09-7.61 1.05-10.5-0.03-2.89-0.73-7.73-1.55-10.75z"/>
				<path id="Base 2" class="s5" d="m218.4 17.5c-0.8-2.2-2.35-5.13-3.45-6.5l-1.99-2.5c-13.32 13.8-15.09 16.32-15.54 19.25-0.46 3.01-0.07 4.44 1.97 7.25 1.39 1.92 5.05 5.97 8.12 9l5.58 5.5c2.99-3.88 4.55-7.03 5.39-9.5 0.87-2.53 1.5-7.57 1.45-11.5-0.05-3.85-0.74-8.8-1.53-11z"/>
				<path class="s4" d="m246.5 39.1l9.5-8.9q0.18-0.16 0.28-0.39 0.09-0.22 0.1-0.46-0.01-0.24-0.1-0.46-0.1-0.23-0.28-0.39l-9.5-8.9q-0.24-0.23-0.57-0.3-0.33-0.06-0.64 0.07-0.31 0.13-0.5 0.41-0.19 0.28-0.19 0.62v17.8q-0.01 0.34 0.17 0.63 0.18 0.29 0.49 0.44 0.31 0.14 0.64 0.1 0.34-0.05 0.6-0.27z"/>
			</g>
			<g id="Down">
				<path id="Base" class="s3" d="m40 67.79c2.47-0.49 6.86-2.01 9.75-3.39 3.6-1.71 5.76-3.53 6.88-5.75 1.38-2.76 1.52-5.31 0.92-16.75-0.38-7.43-1.1-15.08-1.58-17-0.64-2.52-3.77-6.34-11.18-13.66-6.61-6.53-11.36-10.41-13.29-10.86-1.65-0.38-4.13-0.38-5.5 0-1.38 0.38-7.13 5.27-12.79 10.86-7.41 7.32-10.54 11.14-11.18 13.66-0.48 1.92-1.2 9.57-1.58 17-0.6 11.44-0.46 13.99 0.92 16.75 1.12 2.23 3.27 4.03 6.88 5.73 2.89 1.37 7.72 2.95 10.75 3.52 3.02 0.56 7.97 0.97 11 0.9 3.02-0.07 7.52-0.52 10-1.01z"/>
				<path id="Outline" fill-rule="evenodd" class="s4" d="m28.31 0c1.2 0.01 3.65 0.91 5.44 2 1.79 1.1 6.67 5.26 10.85 9.25 4.17 3.99 8.45 8.6 9.5 10.25 1.42 2.25 2.19 6.38 3.04 16.5 0.63 7.42 0.86 15.07 0.52 17-0.34 1.92-1.86 4.73-3.39 6.22-1.52 1.5-5.47 3.72-8.77 4.93-4.62 1.69-8.3 2.21-16 2.26-7.82 0.05-11.42-0.42-16.5-2.15-3.92-1.33-7.69-3.44-12.5-8.42l0.25-14.17c0.14-7.79 0.7-15.86 1.25-17.92 0.61-2.29 3.23-6.14 6.75-9.91 3.16-3.39 8.36-8.34 11.56-11 3.19-2.66 6.79-4.84 8-4.84zm-11.48 13.75c-5.7 5.63-10.27 11.02-10.79 12.75-0.5 1.65-1.2 8.4-1.56 15-0.42 7.78-0.26 12.88 0.43 14.5 0.6 1.39 3.09 3.5 5.59 4.75 2.47 1.24 7.54 2.79 11.25 3.45 5.26 0.94 8.35 0.94 14 0 3.99-0.66 9.05-2.1 11.25-3.2 2.2-1.1 4.76-3.24 5.69-4.75 1.45-2.37 1.58-4.35 0.94-14.25-0.41-6.33-1.15-13.08-1.65-15-0.64-2.48-3.75-6.33-10.69-13.21-6.79-6.75-10.52-9.73-12.18-9.75-1.71-0.03-5.22 2.75-12.28 9.71z"/>
				<path id="Base 2" class="s5" d="m20.31 4.88c-3.2 2.68-7.16 6.3-8.81 8.06l-3 3.18c3.87 2.96 7.02 4.52 9.5 5.36 2.47 0.85 7.42 1.54 11 1.54 3.57 0 8.52-0.69 11-1.54 2.47-0.84 5.62-2.43 7-3.52l2.5-1.99c-9.69-9.28-13.96-12.87-15.75-13.97-1.79-1.09-4.24-1.99-5.44-2-1.21 0-4.81 2.19-8 4.88z"/>
				<path class="s4" d="m37.9 47.8h-17.8q-0.34 0-0.62 0.19-0.28 0.19-0.41 0.5-0.13 0.31-0.07 0.64 0.07 0.33 0.3 0.57l8.9 9.5q0.16 0.18 0.39 0.28 0.22 0.09 0.46 0.1 0.24-0.01 0.46-0.1 0.23-0.1 0.39-0.28l8.9-9.5q0.21-0.26 0.25-0.59 0.03-0.34-0.11-0.64-0.14-0.3-0.42-0.48-0.29-0.18-0.62-0.19z"/>
			</g>
			<g id="Up">
				<path id="Base" class="s3" d="m80 1.11c-2.48 0.48-6.86 2.01-9.75 3.39-3.6 1.71-5.76 3.52-6.88 5.75-1.38 2.75-1.52 5.31-0.92 16.75 0.38 7.42 1.1 15.07 1.58 17 0.64 2.52 3.77 6.34 11.18 13.66 6.61 6.53 11.36 10.41 13.29 10.86 1.65 0.38 4.12 0.38 5.5 0 1.37-0.38 7.13-5.27 12.79-10.86 7.41-7.32 10.54-11.14 11.18-13.66 0.48-1.93 1.2-9.58 1.58-17 0.6-11.44 0.46-14-0.92-16.75-1.12-2.23-3.27-4.03-6.88-5.74-2.89-1.36-7.73-2.94-10.75-3.51-3.03-0.56-7.98-0.97-11-0.9-3.03 0.07-7.53 0.52-10 1.01z"/>
				<path id="Outline" fill-rule="evenodd" class="s4" d="m92.5 0.41c5.52 0.25 11.32 1.21 15 2.48 3.43 1.19 7.29 3.4 9 5.18 2.27 2.35 3.09 4.23 3.36 7.76 0.19 2.57-0.15 10.07-0.76 16.67-0.93 9.99-1.52 12.59-3.55 15.5-1.34 1.92-5.72 6.69-9.74 10.58-4.02 3.9-8.44 7.87-9.81 8.82-1.88 1.31-3.49 1.57-6.5 1.05-3.35-0.58-5.66-2.35-14.16-10.82-7.72-7.7-10.41-11.09-11.25-14.13-0.6-2.2-1.2-10.37-1.34-18.16-0.25-13.87-0.2-14.2 2.25-16.84 1.37-1.48 3.74-3.32 5.25-4.1 1.51-0.77 5.11-2.07 8-2.9 3.56-1.01 8.14-1.36 14.25-1.09zm-13.5 5.21c-3.03 0.82-6.96 2.37-8.75 3.44-2.24 1.34-3.44 2.95-3.86 5.19-0.34 1.79-0.31 8.2 0.07 14.25 0.37 6.05 1.08 12.35 1.57 14 0.53 1.79 4.95 6.94 10.93 12.75 5.91 5.74 10.86 9.75 12.04 9.75 1.18 0 6.13-4.01 12.04-9.75 5.98-5.81 10.4-10.96 10.93-12.75 0.49-1.65 1.2-7.95 1.57-14 0.38-6.05 0.41-12.46 0.07-14.25-0.49-2.63-1.52-3.7-5.36-5.63-2.61-1.3-7.11-2.88-10-3.5-2.89-0.61-7.61-1.09-10.5-1.05-2.89 0.03-7.73 0.73-10.75 1.55z"/>
				<path id="Base 2" class="s5" d="m79.5 47.6c-2.2 0.8-5.13 2.35-6.5 3.45l-2.5 1.99c13.8 13.32 16.32 15.09 19.25 15.54 3.01 0.46 4.44 0.07 7.25-1.97 1.92-1.39 5.97-5.05 9-8.12l5.5-5.58c-3.88-2.99-7.03-4.55-9.5-5.39-2.53-0.87-7.57-1.5-11.5-1.45-3.85 0.05-8.8 0.74-11 1.53z"/>
				<path class="s4" d="m82.1 20.8h17.8q0.34 0 0.62-0.19 0.28-0.19 0.41-0.5 0.13-0.31 0.07-0.64-0.07-0.33-0.3-0.57l-8.9-9.5q-0.16-0.18-0.39-0.28-0.22-0.09-0.46-0.1-0.24 0.01-0.46 0.1-0.23 0.1-0.39 0.28l-8.9 9.5q-0.21 0.26-0.25 0.59-0.03 0.34 0.11 0.64 0.14 0.3 0.42 0.48 0.29 0.18 0.62 0.19z"/>
			</g>
		</g>
	</g>
</svg>