<svg version="1.2" xmlns="http://www.w3.org/2000/svg" viewBox="0 0 244 120" width="244" height="120">
	<title>Face</title>
	<style>
		.s0 { fill: #f76300 } 
		.s1 { fill: #e05500 } 
		.s2 { fill: #f76300 } 
		.s3 { fill: #e05500 } 
		.s4 { fill: #ffffff } 
		.s5 { fill: #ffffff } 
		.s6 { fill: #ffffff } 
		.s7 { fill: #ffffff } 
	</style>
	<g id="Face">
		<g id="Press">
			<g id="Triangle">
				<path id="Form 1" fill-rule="evenodd" class="s0" d="m215 120c-16.04 0-29-12.96-29-29 0-16.04 12.96-29 29-29 16.04 0 29 12.96 29 29 0 16.04-12.96 29-29 29z"/>
				<path id="Farbfüllung 1" fill-rule="evenodd" class="s1" d="m214.5 62.06c2.75-0.05 7.25 0.68 10 1.6 3.43 1.16 6.77 3.45 10.62 7.27 4.33 4.29 5.99 6.83 7.26 11.07 0.9 3.03 1.64 7.08 1.64 9 0 1.92-0.74 5.97-1.64 9-1.27 4.24-2.93 6.78-7.26 11.07-3.85 3.82-7.19 6.11-10.62 7.27-2.75 0.92-7.03 1.68-9.5 1.68-2.47 0-6.75-0.76-9.5-1.68-3.43-1.16-6.77-3.45-10.62-7.27-4.33-4.29-5.99-6.83-7.26-11.07-0.9-3.03-1.63-7.08-1.62-9 0-1.92 0.49-5.3 1.08-7.5 0.59-2.2 2.42-6.03 4.08-8.5 1.65-2.47 4.66-5.71 6.67-7.18 2.02-1.48 5.47-3.36 7.67-4.18 2.2-0.82 6.25-1.54 9-1.58zm-8 5.41c-2.2 0.83-5.57 2.81-7.5 4.38-1.93 1.58-4.63 5.06-6 7.74-1.97 3.83-2.5 6.37-2.5 11.89 0 5.84 0.46 7.82 2.75 11.77 1.51 2.61 4.21 5.85 6 7.19 1.79 1.35 5.28 3.16 7.75 4.03 2.47 0.86 6.07 1.57 8 1.56 1.93 0 5.75-0.77 8.5-1.71 2.97-1.02 6.65-3.36 9.05-5.77 2.41-2.4 4.75-6.08 5.77-9.05 0.94-2.75 1.71-6.58 1.71-8.5 0.01-1.93-0.7-5.53-1.56-8-0.87-2.47-2.68-5.96-4.03-7.75-1.34-1.79-4.58-4.46-7.19-5.93-3.32-1.88-6.55-2.78-10.75-3.02-3.7-0.21-7.53 0.24-10 1.17z"/>
				<path class="s2" d="m230.02 98.35l-14.77-25.47-14.77 25.47-1.47 2.59h32.49zm-14.68 0h-11.72l11.72-20.22 11.73 20.22z"/>
			</g>
			<g id="Square">
				<path id="Form 1 copy 3" fill-rule="evenodd" class="s0" d="m153 120c-16.04 0-29-12.96-29-29 0-16.04 12.96-29 29-29 16.04 0 29 12.96 29 29 0 16.04-12.96 29-29 29z"/>
				<path id="Farbfüllung 4" fill-rule="evenodd" class="s1" d="m152.5 62.06c2.75-0.05 7.25 0.68 10 1.6 3.43 1.16 6.77 3.45 10.62 7.27 4.33 4.29 5.99 6.83 7.26 11.07 0.9 3.03 1.64 7.08 1.64 9 0 1.92-0.74 5.97-1.64 9-1.27 4.24-2.93 6.78-7.26 11.07-3.85 3.82-7.19 6.11-10.62 7.27-2.75 0.92-7.03 1.68-9.5 1.68-2.47 0-6.75-0.76-9.5-1.68-3.43-1.16-6.77-3.45-10.62-7.27-4.33-4.29-5.99-6.83-7.26-11.07-0.9-3.03-1.63-7.08-1.62-9 0-1.92 0.49-5.3 1.08-7.5 0.59-2.2 2.42-6.03 4.08-8.5 1.65-2.47 4.66-5.71 6.67-7.18 2.02-1.48 5.47-3.36 7.67-4.18 2.2-0.82 6.25-1.54 9-1.58zm-8 5.41c-2.2 0.83-5.57 2.81-7.5 4.38-1.93 1.58-4.63 5.06-6 7.74-1.97 3.83-2.5 6.37-2.5 11.89 0 5.84 0.46 7.82 2.75 11.77 1.51 2.61 4.21 5.85 6 7.19 1.79 1.35 5.28 3.16 7.75 4.03 2.47 0.86 6.07 1.57 8 1.56 1.93 0 5.75-0.77 8.5-1.71 2.97-1.02 6.65-3.36 9.05-5.77 2.41-2.4 4.75-6.08 5.77-9.05 0.94-2.75 1.71-6.58 1.71-8.5 0.01-1.93-0.7-5.53-1.56-8-0.87-2.47-2.68-5.96-4.03-7.75-1.34-1.79-4.58-4.46-7.19-5.93-3.32-1.88-6.55-2.78-10.75-3.02-3.7-0.21-7.53 0.24-10 1.17z"/>
				<path class="s2" d="m163.42 77.26h-23.81v26.4h26.4v-26.4zm0 23.91h-21.23v-21.23h21.23z"/>
			</g>
			<g id="Circle">
				<path id="Form 1 copy 2" fill-rule="evenodd" class="s0" d="m91 120c-16.04 0-29-12.96-29-29 0-16.04 12.96-29 29-29 16.04 0 29 12.96 29 29 0 16.04-12.96 29-29 29z"/>
				<path id="Farbfüllung 3" fill-rule="evenodd" class="s1" d="m90.5 62.06c2.75-0.05 7.25 0.68 10 1.6 3.43 1.16 6.77 3.45 10.62 7.27 4.33 4.29 5.99 6.83 7.26 11.07 0.9 3.03 1.64 7.08 1.64 9 0 1.92-0.74 5.97-1.64 9-1.27 4.24-2.93 6.78-7.26 11.07-3.85 3.82-7.19 6.11-10.62 7.27-2.75 0.92-7.03 1.68-9.5 1.68-2.47 0-6.75-0.76-9.5-1.68-3.43-1.16-6.77-3.45-10.62-7.27-4.33-4.29-5.99-6.83-7.26-11.07-0.9-3.03-1.63-7.08-1.62-9 0-1.92 0.49-5.3 1.08-7.5 0.59-2.2 2.42-6.03 4.08-8.5 1.65-2.47 4.66-5.71 6.67-7.18 2.02-1.48 5.47-3.36 7.67-4.18 2.2-0.82 6.25-1.54 9-1.58zm-8 5.41c-2.2 0.83-5.57 2.81-7.5 4.38-1.93 1.58-4.63 5.06-6 7.74-1.97 3.83-2.5 6.37-2.5 11.89 0 5.84 0.46 7.82 2.75 11.77 1.51 2.61 4.21 5.85 6 7.19 1.79 1.35 5.28 3.16 7.75 4.03 2.47 0.86 6.07 1.57 8 1.56 1.93 0 5.75-0.77 8.5-1.71 2.97-1.02 6.65-3.36 9.05-5.77 2.41-2.4 4.75-6.08 5.77-9.05 0.94-2.75 1.71-6.58 1.71-8.5 0.01-1.93-0.7-5.53-1.56-8-0.87-2.47-2.68-5.96-4.03-7.75-1.34-1.79-4.58-4.46-7.19-5.93-3.32-1.88-6.55-2.78-10.75-3.02-3.7-0.21-7.53 0.24-10 1.17z"/>
				<path class="s2" d="m91.35 73.4c-7.06 0-13.43 4.25-16.12 10.77-2.71 6.52-1.21 14.02 3.78 19.01 4.99 4.99 12.49 6.49 19.01 3.78 6.53-2.69 10.77-9.06 10.77-16.11-0.01-2.29-0.46-4.55-1.34-6.67-0.87-2.12-2.17-4.04-3.78-5.66-1.62-1.61-3.54-2.9-5.66-3.78-2.11-0.88-4.37-1.33-6.66-1.34zm0 32.22c-5.98 0-11.37-3.6-13.65-9.12-2.29-5.52-1.02-11.88 3.21-16.09 4.21-4.23 10.57-5.5 16.09-3.21 5.52 2.28 9.12 7.67 9.12 13.65 0 1.93-0.38 3.85-1.13 5.65-0.74 1.79-1.83 3.42-3.2 4.79-1.37 1.37-3 2.46-4.79 3.2-1.8 0.75-3.72 1.13-5.65 1.13z"/>
			</g>
			<g id="Cross">
				<path id="Form 1 copy" fill-rule="evenodd" class="s0" d="m29 120c-16.04 0-29-12.96-29-29 0-16.04 12.96-29 29-29 16.04 0 29 12.96 29 29 0 16.04-12.96 29-29 29z"/>
				<path id="Farbfüllung 2" fill-rule="evenodd" class="s1" d="m28.5 62.06c2.75-0.05 7.25 0.68 10 1.6 3.43 1.16 6.77 3.45 10.62 7.27 4.33 4.29 5.99 6.83 7.26 11.07 0.9 3.03 1.64 7.07 1.64 9 0 1.93-0.74 5.97-1.64 9-1.27 4.24-2.93 6.78-7.26 11.07-3.85 3.82-7.19 6.11-10.62 7.27-2.75 0.92-7.03 1.68-9.5 1.68-2.47 0-6.75-0.76-9.5-1.68-3.43-1.16-6.77-3.45-10.62-7.27-4.33-4.29-5.99-6.83-7.26-11.07-0.9-3.03-1.63-7.07-1.62-9 0-1.93 0.49-5.3 1.08-7.5 0.59-2.2 2.42-6.03 4.08-8.5 1.65-2.47 4.66-5.71 6.67-7.18 2.02-1.48 5.47-3.36 7.67-4.18 2.2-0.82 6.25-1.54 9-1.58zm-8 5.41c-2.2 0.83-5.58 2.81-7.5 4.38-1.92 1.58-4.63 5.06-6 7.74-1.97 3.83-2.5 6.37-2.5 11.89 0 5.84 0.46 7.82 2.75 11.77 1.51 2.61 4.21 5.85 6 7.19 1.79 1.35 5.28 3.16 7.75 4.03 2.47 0.86 6.08 1.57 8 1.56 1.92 0 5.75-0.77 8.5-1.71 2.97-1.02 6.65-3.36 9.05-5.77 2.41-2.4 4.75-6.08 5.77-9.05 0.94-2.75 1.71-6.57 1.71-8.5 0.01-1.93-0.7-5.53-1.56-8-0.87-2.47-2.68-5.96-4.03-7.75-1.34-1.79-4.58-4.46-7.19-5.93-3.32-1.88-6.55-2.78-10.75-3.02-3.7-0.21-7.53 0.24-10 1.17z"/>
				<path fill-rule="evenodd" class="s2" d="m42.01 79.4l-1.85-1.85-11.35 11.36-11.45-11.36-1.84 1.85 11.35 11.35-11.35 11.45 1.84 1.85 11.45-11.36 11.35 11.36 1.85-1.85-11.36-11.45z"/>
			</g>
		</g>
		<g id="Base">
			<g id="Triangle">
				<path id="Form 1" fill-rule="evenodd" class="s2" d="m215 58c-16.04 0-29-12.96-29-29 0-16.04 12.96-29 29-29 16.04 0 29 12.96 29 29 0 16.04-12.96 29-29 29z"/>
				<path id="Farbfüllung 1" fill-rule="evenodd" class="s3" d="m214.5 0.06c2.75-0.05 7.25 0.68 10 1.6 3.43 1.16 6.77 3.45 10.62 7.27 4.33 4.29 5.99 6.83 7.26 11.07 0.9 3.02 1.64 7.08 1.64 9 0 1.92-0.74 5.98-1.64 9-1.27 4.24-2.93 6.78-7.26 11.07-3.85 3.82-7.19 6.11-10.62 7.27-2.75 0.92-7.03 1.68-9.5 1.68-2.47 0-6.75-0.76-9.5-1.68-3.43-1.16-6.77-3.45-10.62-7.27-4.33-4.29-5.99-6.83-7.26-11.07-0.9-3.02-1.63-7.08-1.62-9 0-1.92 0.49-5.3 1.08-7.5 0.59-2.2 2.42-6.02 4.08-8.5 1.65-2.48 4.66-5.71 6.67-7.18 2.02-1.48 5.47-3.36 7.67-4.18 2.2-0.82 6.25-1.54 9-1.58zm-8 5.41c-2.2 0.83-5.57 2.81-7.5 4.38-1.93 1.58-4.63 5.06-6 7.74-1.97 3.83-2.5 6.37-2.5 11.89 0 5.84 0.46 7.82 2.75 11.77 1.51 2.61 4.21 5.85 6 7.19 1.79 1.35 5.28 3.16 7.75 4.03 2.47 0.86 6.07 1.57 8 1.56 1.93 0 5.75-0.77 8.5-1.71 2.97-1.02 6.65-3.36 9.05-5.77 2.41-2.4 4.75-6.08 5.77-9.05 0.94-2.75 1.71-6.58 1.71-8.5 0.01-1.92-0.7-5.52-1.56-8-0.87-2.48-2.68-5.96-4.03-7.75-1.34-1.79-4.58-4.46-7.19-5.93-3.32-1.88-6.55-2.78-10.75-3.02-3.7-0.21-7.53 0.24-10 1.17z"/>
				<path class="s4" d="m230.02 36.35l-14.77-25.47-14.77 25.47-1.47 2.59h32.49zm-14.68 0h-11.72l11.72-20.22 11.73 20.22z"/>
			</g>
			<g id="Square">
				<path id="Form 1 copy 3" fill-rule="evenodd" class="s2" d="m153 58c-16.04 0-29-12.96-29-29 0-16.04 12.96-29 29-29 16.04 0 29 12.96 29 29 0 16.04-12.96 29-29 29z"/>
				<path id="Farbfüllung 4" fill-rule="evenodd" class="s3" d="m152.5 0.06c2.75-0.05 7.25 0.68 10 1.6 3.43 1.16 6.77 3.45 10.62 7.27 4.33 4.29 5.99 6.83 7.26 11.07 0.9 3.03 1.64 7.08 1.64 9 0 1.92-0.74 5.97-1.64 9-1.27 4.24-2.93 6.78-7.26 11.07-3.85 3.82-7.19 6.11-10.62 7.27-2.75 0.92-7.03 1.68-9.5 1.68-2.47 0-6.75-0.76-9.5-1.68-3.43-1.16-6.77-3.45-10.62-7.27-4.33-4.29-5.99-6.83-7.26-11.07-0.9-3.03-1.63-7.08-1.62-9 0-1.92 0.49-5.3 1.08-7.5 0.59-2.2 2.42-6.03 4.08-8.5 1.65-2.47 4.66-5.71 6.67-7.18 2.02-1.48 5.47-3.36 7.67-4.18 2.2-0.82 6.25-1.54 9-1.58zm-8 5.41c-2.2 0.83-5.57 2.81-7.5 4.38-1.93 1.58-4.63 5.06-6 7.74-1.97 3.83-2.5 6.37-2.5 11.89 0 5.84 0.46 7.82 2.75 11.77 1.51 2.61 4.21 5.85 6 7.19 1.79 1.35 5.28 3.16 7.75 4.03 2.47 0.86 6.07 1.57 8 1.56 1.93 0 5.75-0.77 8.5-1.71 2.97-1.02 6.65-3.36 9.05-5.77 2.41-2.4 4.75-6.08 5.77-9.05 0.94-2.75 1.71-6.58 1.71-8.5 0.01-1.92-0.7-5.53-1.56-8-0.87-2.47-2.68-5.96-4.03-7.75-1.34-1.79-4.58-4.46-7.19-5.93-3.32-1.88-6.55-2.78-10.75-3.02-3.7-0.21-7.53 0.24-10 1.17z"/>
				<path class="s5" d="m163.42 15.26h-23.81v26.4h26.4v-26.4zm0 23.91h-21.23v-21.23h21.23z"/>
			</g>
			<g id="Circle">
				<path id="Form 1 copy 2" fill-rule="evenodd" class="s2" d="m91 58c-16.04 0-29-12.96-29-29 0-16.04 12.96-29 29-29 16.04 0 29 12.96 29 29 0 16.04-12.96 29-29 29z"/>
				<path id="Farbfüllung 3" fill-rule="evenodd" class="s3" d="m90.5 0.06c2.75-0.05 7.25 0.68 10 1.6 3.43 1.16 6.77 3.45 10.62 7.27 4.33 4.29 5.99 6.83 7.26 11.07 0.9 3.03 1.64 7.08 1.64 9 0 1.92-0.74 5.97-1.64 9-1.27 4.24-2.93 6.78-7.26 11.07-3.85 3.82-7.19 6.11-10.62 7.27-2.75 0.92-7.03 1.68-9.5 1.68-2.47 0-6.75-0.76-9.5-1.68-3.43-1.16-6.77-3.45-10.62-7.27-4.33-4.29-5.99-6.83-7.26-11.07-0.9-3.03-1.63-7.08-1.62-9 0-1.92 0.49-5.3 1.08-7.5 0.59-2.2 2.42-6.03 4.08-8.5 1.65-2.47 4.66-5.71 6.67-7.18 2.02-1.48 5.47-3.36 7.67-4.18 2.2-0.82 6.25-1.54 9-1.58zm-8 5.41c-2.2 0.83-5.57 2.81-7.5 4.38-1.93 1.58-4.63 5.06-6 7.74-1.97 3.83-2.5 6.37-2.5 11.89 0 5.84 0.46 7.82 2.75 11.77 1.51 2.61 4.21 5.85 6 7.19 1.79 1.35 5.28 3.16 7.75 4.03 2.47 0.86 6.07 1.57 8 1.56 1.93 0 5.75-0.77 8.5-1.71 2.97-1.02 6.65-3.36 9.05-5.77 2.41-2.4 4.75-6.08 5.77-9.05 0.94-2.75 1.71-6.58 1.71-8.5 0.01-1.92-0.7-5.53-1.56-8-0.87-2.47-2.68-5.96-4.03-7.75-1.34-1.79-4.58-4.46-7.19-5.93-3.32-1.88-6.55-2.78-10.75-3.02-3.7-0.21-7.53 0.24-10 1.17z"/>
				<path class="s6" d="m91.35 11.4c-7.06 0-13.43 4.25-16.12 10.77-2.71 6.52-1.21 14.02 3.78 19.01 4.99 4.99 12.49 6.49 19.01 3.78 6.53-2.69 10.77-9.06 10.77-16.11-0.01-2.29-0.46-4.55-1.34-6.67-0.87-2.12-2.17-4.04-3.78-5.66-1.62-1.61-3.54-2.9-5.66-3.78-2.11-0.88-4.37-1.33-6.66-1.34zm0 32.22c-5.98 0-11.37-3.6-13.65-9.12-2.29-5.52-1.02-11.88 3.21-16.09 4.21-4.23 10.57-5.5 16.09-3.21 5.52 2.28 9.12 7.67 9.12 13.65 0 1.93-0.38 3.85-1.13 5.65-0.74 1.79-1.83 3.42-3.2 4.79-1.37 1.37-3 2.46-4.79 3.2-1.8 0.75-3.72 1.13-5.65 1.13z"/>
			</g>
			<g id="Cross">
				<path id="Form 1 copy" fill-rule="evenodd" class="s2" d="m29 58c-16.04 0-29-12.96-29-29 0-16.04 12.96-29 29-29 16.04 0 29 12.96 29 29 0 16.04-12.96 29-29 29z"/>
				<path id="Farbfüllung 2" fill-rule="evenodd" class="s3" d="m28.5 0.06c2.75-0.05 7.25 0.68 10 1.6 3.43 1.16 6.77 3.45 10.62 7.27 4.33 4.29 5.99 6.83 7.26 11.07 0.9 3.03 1.64 7.07 1.64 9 0 1.93-0.74 5.97-1.64 9-1.27 4.24-2.93 6.78-7.26 11.07-3.85 3.82-7.19 6.11-10.62 7.27-2.75 0.92-7.03 1.68-9.5 1.68-2.47 0-6.75-0.76-9.5-1.68-3.43-1.16-6.77-3.45-10.62-7.27-4.33-4.29-5.99-6.83-7.26-11.07-0.9-3.03-1.63-7.07-1.62-9 0-1.93 0.49-5.3 1.08-7.5 0.59-2.2 2.42-6.03 4.08-8.5 1.65-2.47 4.66-5.71 6.67-7.18 2.02-1.48 5.47-3.36 7.67-4.18 2.2-0.82 6.25-1.54 9-1.58zm-8 5.41c-2.2 0.83-5.58 2.81-7.5 4.38-1.92 1.58-4.63 5.06-6 7.74-1.97 3.83-2.5 6.37-2.5 11.89 0 5.84 0.46 7.82 2.75 11.77 1.51 2.61 4.21 5.85 6 7.19 1.79 1.35 5.28 3.16 7.75 4.03 2.47 0.86 6.08 1.57 8 1.56 1.92 0 5.75-0.77 8.5-1.71 2.97-1.02 6.65-3.36 9.05-5.77 2.41-2.4 4.75-6.08 5.77-9.05 0.94-2.75 1.71-6.57 1.71-8.5 0.01-1.93-0.7-5.53-1.56-8-0.87-2.47-2.68-5.96-4.03-7.75-1.34-1.79-4.58-4.46-7.19-5.93-3.32-1.88-6.55-2.78-10.75-3.02-3.7-0.21-7.53 0.24-10 1.17z"/>
				<path fill-rule="evenodd" class="s7" d="m42.01 17.4l-1.85-1.85-11.35 11.36-11.45-11.36-1.84 1.85 11.35 11.35-11.35 11.45 1.84 1.85 11.45-11.36 11.35 11.36 1.85-1.85-11.36-11.45z"/>
			</g>
		</g>
	</g>
</svg>