<svg version="1.2" xmlns="http://www.w3.org/2000/svg" viewBox="0 0 56 44" width="56" height="44">
	<title>Meta</title>
	<style>
		.s0 { fill: #f76300 } 
	</style>
	<path id="Meta copy" fill-rule="evenodd" class="s0" d="m30.62 43.01l-8.99-2.85v-39.17c1.72 0.38 3.44 0.76 5.55 1.33 2.1 0.57 4.39 1.33 6.88 2.09q1.13 0.33 2.2 0.81 1.07 0.49 2.07 1.11 0.99 0.63 1.89 1.39 0.89 0.76 1.68 1.64 0.63 0.88 1.11 1.86 0.47 0.97 0.76 2.02 0.29 1.05 0.4 2.13 0.11 1.08 0.02 2.16c0 3.42-0.96 5.71-2.87 7.04q-0.33 0.23-0.7 0.41-0.36 0.18-0.75 0.3-0.39 0.12-0.8 0.18-0.4 0.06-0.81 0.06-0.52 0-1.04-0.06-0.51-0.06-1.02-0.18-0.51-0.12-1-0.3-0.49-0.18-0.95-0.41v-13.12c0-1.9-0.57-2.86-1.72-3.24q-0.18-0.07-0.37-0.08-0.19-0.02-0.37 0.03-0.18 0.06-0.34 0.17-0.15 0.11-0.26 0.26-0.16 0.2-0.29 0.43-0.12 0.22-0.19 0.47-0.08 0.24-0.1 0.5-0.02 0.25 0.01 0.51zm-9.94-5.71q-0.78 0.14-1.57 0.24-0.79 0.1-1.58 0.18-0.78 0.07-1.58 0.11-0.79 0.04-1.58 0.04-1.04 0.03-2.08-0.02-1.03-0.04-2.06-0.16-1.04-0.12-2.06-0.31-1.02-0.19-2.02-0.46c-3.25-0.76-4.97-2.09-5.16-3.61 0-1.14 1.34-2.28 4.2-3.42l1.92-0.76 10.51-3.81 3.25-0.95v5.14l-7.84 2.85-2.1 0.76c-0.19 0.19-0.58 0.19-0.77 0.38-0.19 0.19-0.19 0-0.57 0.38-0.38 0.38-0.19 0.76 0.38 1.14l2.87 0.38 3.06-0.57 1.72-0.76 3.25-1.14zm34.98-5.52c0 1.33-1.34 2.67-4.21 3.62l-1.33 0.76-12.24 4.37-6.69 2.47v-5.13l12.43-4.56 2.67-0.96c1.15-0.38 1.72-0.76 1.53-1.14-0.19-0.38-0.76-0.57-1.34-0.76h-2.67l-2.1 0.57-3.06 0.95-7.46 2.67v-5.33q0.6-0.24 1.22-0.46 0.61-0.22 1.23-0.41 0.63-0.19 1.26-0.35 0.63-0.16 1.26-0.3 0.67-0.11 1.33-0.19 0.67-0.09 1.34-0.17 0.67-0.07 1.34-0.12 0.67-0.05 1.34-0.09 0.6-0.05 1.2-0.06 0.6-0.01 1.2 0.01 0.6 0.03 1.2 0.09 0.59 0.06 1.18 0.15 0.61 0.08 1.22 0.2 0.6 0.11 1.2 0.25 0.6 0.14 1.19 0.32 0.59 0.17 1.17 0.37c3.06 0.95 4.59 1.9 4.59 3.23z"/>
</svg>