<svg version="1.2" xmlns="http://www.w3.org/2000/svg" viewBox="0 0 25 41" width="25" height="41">
	<title>Start</title>
	<style>
		.s0 { fill: #f76300 } 
		.s1 { fill: #e05500 } 
	</style>
	<g id="Ordner 1 copy">
		<path id="Farbfüllung 5" class="s0" d="m4.5 2.34c-1.1 0.74-2.59 2.66-3.31 4.26-1.13 2.51-0.96 4.56 1.3 15.4 2.13 10.2 3.11 13.01 5.31 15.27 2.1 2.15 3.62 2.77 6.81 2.75 3.16-0.02 4.74-0.66 6.79-2.77 2.02-2.08 2.66-3.72 2.63-6.75-0.03-2.2-1.06-8.57-2.29-14.15-1.64-7.44-2.91-10.84-4.74-12.77-1.9-2-3.47-2.63-6.5-2.61-2.2 0.01-4.9 0.62-6 1.37z"/>
		<path id="Farbfüllung 6" fill-rule="evenodd" class="s1" d="m10.75 1.06c2.08-0.04 4.09 0.75 5.58 2.19 1.29 1.24 3.06 4.72 3.93 7.75 0.88 3.02 2.08 8.2 2.67 11.5 0.6 3.3 1.08 7.24 1.08 8.75-0.01 1.68-1.14 3.91-2.93 5.75-2.18 2.23-3.84 3-6.5 3-2.55 0-4.4-0.79-6.43-2.75-2.1-2.02-3.31-4.73-4.6-10.25-0.97-4.13-2-10.2-2.29-13.5-0.37-4.08-0.11-6.74 0.81-8.31 0.74-1.26 2.26-2.7 3.39-3.18 1.12-0.49 3.5-0.91 5.29-0.95zm-4.75 5.14c-0.85 0.73-1.32 2.79-1.19 5.25 0.11 2.23 1 7.42 1.97 11.55 0.96 4.12 2.54 8.74 3.49 10.25 1.03 1.64 2.63 2.76 3.98 2.78 1.24 0.02 3.15-0.91 4.25-2.06 1.73-1.82 1.89-2.81 1.2-7.29-0.44-2.85-1.49-7.88-2.33-11.18-0.83-3.3-2.16-7.01-2.94-8.25-0.93-1.46-2.42-2.25-4.23-2.25-1.54 0-3.43 0.54-4.2 1.2z"/>
	</g>
</svg>