<svg version="1.2" xmlns="http://www.w3.org/2000/svg" viewBox="0 0 237 107" width="237" height="107">
	<title>Trigger</title>
	<style>
		.s0 { fill: #f76300 } 
		.s1 { fill: #ff8a1f } 
		.s2 { fill: #000000 } 
	</style>
	<g id="Trigger copy">
		<g id="R2">
			<g id="Base">
				<path id="Base" class="s0" d="m236.08 106.49c0 0-38.35-3.75-59.34-3.75-20.99 0-56.65 2.81-56.65 2.81 0 0 3.64-52.42 5.63-60.98 1.99-8.56 9.03-24.98 19.82-32.72 10.79-7.75 14.08-11.85 26.74-11.85 12.67 0 29.79 7.51 40.58 25.1 10.79 17.59 23.22 81.39 23.22 81.39z"/>
				<path id="Base 2" class="s1" d="m120.68 97.58c0 0 30.61-5.16 57.47-5.16 26.85 0 56.17 5.16 56.17 5.16 1.18 5.51 1.88 8.91 1.88 8.91 0 0-38.35-3.75-59.34-3.75-21 0-56.65 2.81-56.65 2.81 0 0 0-3.16 0.47-7.97z"/>
			</g>
			<g id="Text" style="opacity: .08">
				<path id="2" class="s2" d="m179.32 77.05l-3.75 3.05q-0.53 0.52-0.96 1.13-0.42 0.61-0.72 1.29-0.3 0.68-0.47 1.4-0.17 0.72-0.2 1.46h11.49v-3.05h-7.39q0.25-0.34 0.53-0.65 0.28-0.31 0.59-0.59 0.31-0.29 0.65-0.53 0.33-0.25 0.7-0.46 0.43-0.25 0.85-0.53 0.42-0.28 0.82-0.59 0.39-0.31 0.77-0.64 0.37-0.34 0.72-0.7 0.37-0.39 0.66-0.84 0.28-0.45 0.48-0.95 0.2-0.5 0.29-1.02 0.1-0.53 0.1-1.06 0.02-0.54-0.08-1.08-0.1-0.54-0.31-1.04-0.21-0.5-0.53-0.94-0.32-0.45-0.72-0.81-0.43-0.36-0.91-0.63-0.49-0.28-1.01-0.46-0.53-0.18-1.08-0.26-0.55-0.08-1.11-0.06c-3.63 0-5.51 2-5.51 5.87h3.17q0-3.17 2.46-3.17 0.5-0.05 0.97 0.12 0.46 0.17 0.81 0.53 0.34 0.37 0.49 0.84 0.15 0.48 0.08 0.97-0.01 0.51-0.14 1-0.13 0.49-0.38 0.94-0.24 0.44-0.59 0.82-0.34 0.37-0.77 0.64z"/>
				<path id="R" class="s2" d="m158.68 78.81h3.52c1.75 0 2.69 0.71 2.81 2.23 0.12 1.53 0.23 2.93 0.35 4.46h3.87v-0.47c-0.58-0.24-0.82-0.82-0.82-1.76q0-0.12 0.01-0.24 0-0.12 0.02-0.23 0.01-0.12 0.03-0.24 0.03-0.11 0.06-0.23v-0.82q0.07-0.61-0.04-1.22-0.12-0.6-0.4-1.15-0.28-0.55-0.71-0.99-0.43-0.44-0.96-0.74 0.61-0.21 1.12-0.61 0.51-0.39 0.86-0.94 0.36-0.54 0.51-1.17 0.15-0.63 0.09-1.27 0.03-0.5-0.05-0.99-0.09-0.5-0.28-0.96-0.2-0.46-0.51-0.86-0.3-0.39-0.69-0.71-0.39-0.31-0.84-0.55-0.44-0.23-0.93-0.38-0.48-0.15-0.98-0.21-0.5-0.06-1-0.03h-8.56v16.77h3.52zm0-7.39h4.34c1.64 0 2.46 0.7 2.46 2.23 0 1.52-0.94 2.23-2.7 2.23h-4.1z"/>
			</g>
		</g>
		<g id="L2">
			<g id="Base">
				<path id="Base" class="s0" d="m0.12 106.49c0 0 38.35-3.75 59.34-3.75 20.99 0 56.65 2.81 56.65 2.81 0 0-3.64-52.42-5.63-60.98-1.99-8.56-9.03-24.98-19.82-32.72-10.79-7.75-14.08-11.85-26.74-11.85-12.67 0-29.79 7.51-40.58 25.1-10.79 17.59-23.22 81.39-23.22 81.39z"/>
				<path id="Base 2" class="s1" d="m115.52 97.58c0 0-30.61-5.16-57.47-5.16-26.85 0-56.17 5.16-56.17 5.16-1.18 5.51-1.88 8.91-1.88 8.91 0 0 38.35-3.75 59.34-3.75 21 0 56.65 2.81 56.65 2.81 0 0 0-3.16-0.47-7.97z"/>
			</g>
			<g id="Text" style="opacity: .08">
				<path id="2" class="s2" d="m75.76 77.05l-3.75 3.05q-0.53 0.52-0.95 1.13-0.42 0.61-0.72 1.29-0.3 0.68-0.47 1.4-0.17 0.72-0.2 1.46h11.49v-3.05h-7.27q0.24-0.34 0.52-0.65 0.28-0.31 0.59-0.59 0.31-0.29 0.65-0.53 0.34-0.25 0.7-0.46 0.44-0.25 0.85-0.53 0.42-0.28 0.82-0.59 0.4-0.31 0.77-0.64 0.38-0.34 0.73-0.7 0.36-0.39 0.65-0.84 0.29-0.45 0.48-0.95 0.2-0.5 0.3-1.02 0.09-0.53 0.09-1.06 0.02-0.54-0.08-1.08-0.1-0.54-0.31-1.04-0.21-0.5-0.53-0.94-0.32-0.45-0.72-0.81-0.43-0.36-0.91-0.63-0.49-0.28-1.01-0.46-0.53-0.18-1.08-0.26-0.55-0.08-1.11-0.06c-3.63 0-5.51 2-5.51 5.87h3.17q0-3.17 2.46-3.17 0.5-0.05 0.97 0.12 0.47 0.17 0.81 0.53 0.34 0.37 0.49 0.84 0.15 0.48 0.08 0.97-0.03 0.52-0.17 1.01-0.15 0.49-0.41 0.94-0.26 0.44-0.62 0.81-0.36 0.37-0.8 0.64z"/>
				<path id="L" fill-rule="evenodd" class="s2" d="m65.79 82.21h-8.32v-13.6h-3.52v16.77h11.84z"/>
			</g>
		</g>
	</g>
</svg>